<svg width="30" height="30" viewBox="0 0 30 30" fill="none" xmlns="http://www.w3.org/2000/svg">
<path d="M8.57495 6.0125V3.4375" stroke="black" stroke-linecap="round" stroke-linejoin="round"/>
<path d="M21.425 6.0125V3.4375" stroke="black" stroke-linecap="round" stroke-linejoin="round"/>
<path d="M22.5625 4.7251H7.4375C5.225 4.7251 3.4375 6.51259 3.4375 8.72509V22.5751C3.4375 24.7876 5.225 26.5751 7.4375 26.5751H22.575C24.7875 26.5751 26.575 24.7876 26.575 22.5751V8.72509C26.5625 6.51259 24.775 4.7251 22.5625 4.7251Z" stroke="black" stroke-linecap="round" stroke-linejoin="round"/>
<path d="M3.4375 9.87476H26.5625" stroke="black" stroke-linecap="round" stroke-linejoin="round"/>
<path d="M22.5 15C23.1904 15 23.75 14.4404 23.75 13.75C23.75 13.0596 23.1904 12.5 22.5 12.5C21.8096 12.5 21.25 13.0596 21.25 13.75C21.25 14.4404 21.8096 15 22.5 15Z" fill="black"/>
<path d="M17.5 15C18.1904 15 18.75 14.4404 18.75 13.75C18.75 13.0596 18.1904 12.5 17.5 12.5C16.8096 12.5 16.25 13.0596 16.25 13.75C16.25 14.4404 16.8096 15 17.5 15Z" fill="black"/>
<path d="M12.5 15C13.1904 15 13.75 14.4404 13.75 13.75C13.75 13.0596 13.1904 12.5 12.5 12.5C11.8096 12.5 11.25 13.0596 11.25 13.75C11.25 14.4404 11.8096 15 12.5 15Z" fill="black"/>
<path d="M7.5 15C8.19036 15 8.75 14.4404 8.75 13.75C8.75 13.0596 8.19036 12.5 7.5 12.5C6.80964 12.5 6.25 13.0596 6.25 13.75C6.25 14.4404 6.80964 15 7.5 15Z" fill="black"/>
<path d="M22.5 19.3623C23.1904 19.3623 23.75 18.8027 23.75 18.1123C23.75 17.4219 23.1904 16.8623 22.5 16.8623C21.8096 16.8623 21.25 17.4219 21.25 18.1123C21.25 18.8027 21.8096 19.3623 22.5 19.3623Z" fill="black"/>
<path d="M17.5 19.3623C18.1904 19.3623 18.75 18.8027 18.75 18.1123C18.75 17.4219 18.1904 16.8623 17.5 16.8623C16.8096 16.8623 16.25 17.4219 16.25 18.1123C16.25 18.8027 16.8096 19.3623 17.5 19.3623Z" fill="black"/>
<path d="M12.5 19.3623C13.1904 19.3623 13.75 18.8027 13.75 18.1123C13.75 17.4219 13.1904 16.8623 12.5 16.8623C11.8096 16.8623 11.25 17.4219 11.25 18.1123C11.25 18.8027 11.8096 19.3623 12.5 19.3623Z" fill="black"/>
<path d="M7.5 19.3623C8.19036 19.3623 8.75 18.8027 8.75 18.1123C8.75 17.4219 8.19036 16.8623 7.5 16.8623C6.80964 16.8623 6.25 17.4219 6.25 18.1123C6.25 18.8027 6.80964 19.3623 7.5 19.3623Z" fill="black"/>
<path d="M17.5 23.7124C18.1904 23.7124 18.75 23.1528 18.75 22.4624C18.75 21.772 18.1904 21.2124 17.5 21.2124C16.8096 21.2124 16.25 21.772 16.25 22.4624C16.25 23.1528 16.8096 23.7124 17.5 23.7124Z" fill="black"/>
<path d="M12.5 23.7124C13.1904 23.7124 13.75 23.1528 13.75 22.4624C13.75 21.772 13.1904 21.2124 12.5 21.2124C11.8096 21.2124 11.25 21.772 11.25 22.4624C11.25 23.1528 11.8096 23.7124 12.5 23.7124Z" fill="black"/>
<path d="M7.5 23.7124C8.19036 23.7124 8.75 23.1528 8.75 22.4624C8.75 21.772 8.19036 21.2124 7.5 21.2124C6.80964 21.2124 6.25 21.772 6.25 22.4624C6.25 23.1528 6.80964 23.7124 7.5 23.7124Z" fill="black"/>
</svg>
