<svg fill="none" height="68" viewBox="0 0 75 68" width="75" xmlns="http://www.w3.org/2000/svg" xmlns:xlink="http://www.w3.org/1999/xlink"><linearGradient id="a"><stop offset="0" stop-color="#4d4d4d"/><stop offset="1"/></linearGradient><linearGradient id="b" gradientUnits="userSpaceOnUse" x1="5.1879" x2="41.8679" xlink:href="#a" y1="63.6181" y2="65.4241"/><linearGradient id="c"><stop offset="0"/><stop offset="1"/></linearGradient><linearGradient id="d" gradientUnits="userSpaceOnUse" x1="5.1879" x2="41.8679" xlink:href="#c" y1="63.6181" y2="65.4241"/><linearGradient id="e" gradientUnits="userSpaceOnUse" x1="50.5059" x2="74.3601" xlink:href="#a" y1="62.8354" y2="64.012"/><linearGradient id="f" gradientUnits="userSpaceOnUse" x1="50.5059" x2="74.3601" xlink:href="#c" y1="62.8354" y2="64.012"/><path d="m13.0899 67.11c2.32.06 4.65-.05 6.97-.16 6.48-.3 12.97-.59 19.45-.89 1.01-.05 2.31-.37 2.4-1.4.08-.92-.94-1.49-1.8-1.75-3.09-.92-6.35-1.05-9.57-1.14-4.74-.14-9.48-.25-14.22-.31-2.96-.04-6-.05-8.77999 1.04-1.51.59-3.77001 3.01-1.39001 4.12.66.31 2.01.13 2.72.2 1.4.15 2.8.26 4.22.29z" fill="url(#b)"/><path d="m13.0899 67.11c2.32.06 4.65-.05 6.97-.16 6.48-.3 12.97-.59 19.45-.89 1.01-.05 2.31-.37 2.4-1.4.08-.92-.94-1.49-1.8-1.75-3.09-.92-6.35-1.05-9.57-1.14-4.74-.14-9.48-.25-14.22-.31-2.96-.04-6-.05-8.77999 1.04-1.51.59-3.77001 3.01-1.39001 4.12.66.31 2.01.13 2.72.2 1.4.15 2.8.26 4.22.29z" fill="url(#d)"/><path d="m55.64 65.08c1.51.04 3.02-.03 4.53-.1 4.22-.19 8.43-.37 12.65-.56.66-.03 1.51-.23 1.56-.89.05-.59-.6101-.96-1.1701-1.12-2.01-.59-4.13-.67-6.22-.74-3.08-.09-6.16-.16-9.25-.2-1.93-.03-3.8999-.03-5.7099.66-.98.38-2.45 1.93-.9 2.63.43.2 1.2999.09 1.7699.13.91.09 1.8201.16 2.7401.19z" fill="url(#e)"/><path d="m55.64 65.08c1.51.04 3.02-.03 4.53-.1 4.22-.19 8.43-.37 12.65-.56.66-.03 1.51-.23 1.56-.89.05-.59-.6101-.96-1.1701-1.12-2.01-.59-4.13-.67-6.22-.74-3.08-.09-6.16-.16-9.25-.2-1.93-.03-3.8999-.03-5.7099.66-.98.38-2.45 1.93-.9 2.63.43.2 1.2999.09 1.7699.13.91.09 1.8201.16 2.7401.19z" fill="url(#f)"/><path d="m62.17 2.9c1.19 1.24 1.35 3.11999 1.44 4.84.15 2.82.3 5.65.45 8.47-1.99-.74-3.16-2.77-3.94-4.74-.96-2.45-1.56-5.13001-1-7.70001.11-.52.3-1.06999.74-1.37999.71-.5 1.72-.11 2.31.51z" fill="#e8d9a9"/><path d="m54.68 46.12c.22 2.97.33 5.94.33 8.92 0 1.03-.02 2.09-.21 3.09.13.3.2.61.2.95v.03c0 .63-.25 1.24-.7 1.68-.3.3-.65.5-1.05.61-.02.01-.03.01-.05.02-.01 0-.02 0-.03.01-.43.61-.8 1.23-.89 2 1.11-.45 2.19-1 3.23-1.65.4-.25.79-.52 1.09-.91.55-.72.69-1.73.81-2.68l1.91-15.04z" fill="#f2e4d7"/><path d="m52.37 63.57c-.15.07-.3.13-.46.16-.15.02-.32.01-.46-.04-.54-.19-.79-.88-.64-1.44.16-.55.63-.97 1.15-1.22s1.09-.36 1.65-.51c.25-.07.51-.15.7-.33.31-.3.33-.79.31-1.23-.03-.57-.09-1.13-.19-1.69 1.02-.06 2.03-.11 3.05-.17-.1 1.22-.2 2.43-.3 3.65-.02.18-.03.37-.12.54-.15.28-.45.42-.74.55-1.31.58-2.63 1.16-3.95 1.73z" fill="#aa4a4d"/><path d="m59.33 45.8c.21 2.85.56 7.72.56 10.58 0 .99-.02 2.01-.21 2.97.12.29.19.59.19.91v.03c0 .6-.24 1.19-.67 1.62-.29.28-.62.48-1.01.59-.01.01-.03.01-.04.02-.01 0-.02 0-.02.01-.41.58-.77 1.18-.85 1.92 1.07-.43 2.1-.96 3.1-1.59.38-.24.76-.49 1.05-.87.53-.69.67-1.66.78-2.57l1.84-14.44z" fill="#f2e4d7"/><path d="m57.37 64.57c-.14.06-.29.13-.44.15s-.3.01-.44-.04c-.52-.19-.76-.85-.61-1.38s.61-.93 1.11-1.17 1.05-.35 1.58-.49c.24-.07.49-.15.67-.32.3-.29.32-.76.3-1.18-.03-.54-.09-1.08-.19-1.62.98-.05 1.95-.11 2.93-.16-.1 1.17-.19 2.34-.29 3.5-.01.18-.03.36-.11.52-.14.27-.44.41-.71.53-1.27.55-2.54 1.11-3.8 1.66z" fill="#aa4a4d"/><path d="m53.46 16.22c.31-.12.66-.01.98.08 1.08.33 2.23.47 3.38.44.72-.02 1.49-.11 2.12.19.62.3.95.9 1.15 1.48.42 1.19.51 2.45.77 3.68.27 1.22.72 2.41 1.18 3.59 1.54 3.92 3.22 7.79 5.04 11.62 1.45 3.04 2.99 6.05 4.71 8.98-2.5 1.4-5.44 2.2-8.41 2.28-.36.01-.73.01-1.07-.1-.55-.17-.95-.59-1.43-.88-1.61-.96-3.78-.4-5.7-.1-1.54.24-3.11.29-4.67.32-.7.01-1.5-.01-1.98-.45-.63-.58-.37-1.51-.12-2.28 1.18-3.76.81-7.74.82-11.64.01-5.58.83-11.17 2.71-16.5.08-.28.21-.59.52-.71z" fill="#fcee9f"/><path d="m54.77 2.85c-.92-.39-1.8599-.71-2.8199-.96-.29-.08-.6001-.14001-.8801-.05001-.52.16-.75.77001-.86 1.30001-.6 2.85.02 5.81.64 8.66.13.58.26 1.17.56 1.68.84 1.41 2.7 1.78 4.33 1.92.42.04.8401.06 1.2401-.06.63-.2 1.0699-.76 1.3899-1.34.81-1.45 1.1-3.15 1.16-4.82.08-2.07-.2599-4.36-1.7999-5.75-1.05-.95-2.47-1.32001-3.84-1.66001-.82-.21-1.8101-.37999-2.4201.20001z" fill="#f2e4d7"/><path d="m57.84 1.09c-1.91-.630005-4.04-.720004-5.9.04-1.86.76-3.37 2.47-3.63 4.46-.03.23-.03.49.12.66s.4.19.63.21c1.71.11 3.43.23 5.14.34.06-1.01.58-1.99 1.38-2.61.75 3.08 1.55 6.26 3.42 8.82 1.4-1.57 2.53-3.46 2.78-5.55.26-2.09-.5-4.37-2.23-5.57-.51-.35-1.1-.6-1.71-.8z" fill="#e8d9a9"/><path d="m60.06 3.1c.41.1.83.2 1.17.45s.57.69.45 1.09c-.16.55-.91.74-1.43.49s-.83-.78-1.06-1.3c-.28-.65-.48-1.36-.35-2.05s.67-1.339999 1.37-1.419999c-.05.669999-.24 1.329999-.56 1.919999.43-.27.89-.55 1.4-.55.51.01 1.04.44.95.94-.58.34-1.27.5-1.94.43z" fill="#aa3959"/><path d="m56.9601 24.15c-.08-1.02-1.1-2-2.07-1.67-.74.25-1.08 1.08-1.39 1.79-1.56 3.59-4.52 6.52-8.08 8.13-.71-.21-1.42-.43-2.14-.64-.04.47.14.93.44 1.29-.32.1-.64.19-.96.27-.28.07-.59.15-.72.41-.15.3.07.69.37.84.31.14.67.11 1.01.06 4.96-.69 9.51-3.62 12.46-7.67.6-.84 1.16-1.79 1.08-2.81z" fill="#f2e4d7"/><path d="m38.19 31.35c.14.46.46.85.81 1.19.54.52 1.18.95 1.92 1.06.84.13 1.71-.19 2.35-.74.64-.56 1.06-1.33 1.3-2.14.3-1.02.28-2.27-.51-2.98-.33-.3-.76-.47-1.19-.6-1.08-.33-2.35-.44-3.25.25-.6.46-.92 1.19-1.18 1.9-.24.66-.45 1.39-.25 2.06z" fill="#98b99d"/><path d="m41.81 27.65c-.32 1.26-1.93 1.84-3.08 1.98-.19.02-.2.3 0 .3 1.46.04 3.11-.7 3.65-2.13.13-.34-.48-.52-.57-.15z" fill="#f4f4f4"/><path d="m43.61 30.73c-1.44-.11-2.69.67-3.19 2.03-.05.15.19.25.25.11.47-1.05 1.71-1.74 2.85-1.45.48.11.6-.66.09-.69z" fill="#f4f4f4"/><path d="m23.2498 56.61c.2.46.47.89.8 1.27.5-.18.96-.46 1.35-.83-.35-.88-.84-1.71-1.46-2.43-.42-.02-.79.35-.88.76-.1.42.02.85.19 1.23z" fill="#2f3f47"/><path d="m16.1099 59.47c.11-.18.23-.35.35-.52 1.42-2.04 4.72 1.76 2.42 3.33-1.54 1.05-3.83-.08-3.14-2.05.09-.27.22-.52.37-.76z" fill="#272525"/><path d="m17.9498 61.67c.15-.04.34-.13.55-.27 2.37-1.49 4.62-2.87 6.32-5.15.79-1.06-1.37-2.86-2.48-2.8-1.39.07-3 2.29-3.74 3.29-.48.65-2.38 5.42-.65 4.93z" fill="#eaf1f2"/><path d="m23.7199 62.79c.37.31.82.49 1.28.63.86.26 1.8.37 2.63.04s1.49-1.21 1.34-2.09c-.22-1.27-1.82-1.85-2.24-3.06-.24-.69-.08-1.56-.6-2.08-.23-.22-.54-.33-.85-.39-.6-.13-1.23-.13-1.83-.01-.35 1.07-.59 2.18-.71 3.3-.14 1.31-.04 2.82.98 3.66z" fill="#eaf1f2"/><path d="m25.4099 58.2c.06-.06.11-.14.15-.22.06-.11.1-.22.1-.34 0-.1-.03-.19-.06-.28-.01-.03-.02-.07-.03-.1-.02-.05-.03-.1-.06-.15-.07-.12-.21-.18-.34-.23-.09-.04-.19-.07-.29-.08-.23-.02-.45.12-.57.31s-.13.44-.08.66c.07.28.27.54.55.61.22.06.47-.01.63-.18z" fill="#272525" opacity=".2"/><path d="m25.2498 58.14c.06-.06.11-.14.15-.22.06-.11.1-.22.1-.34 0-.1-.03-.19-.06-.28-.01-.03-.02-.07-.03-.1-.02-.05-.03-.1-.06-.15-.07-.12-.2099-.18-.3399-.23-.09-.04-.1901-.07-.2901-.08-.23-.02-.45.12-.57.31s-.13.44-.08.66c.07.28.27.54.55.61.22.06.48-.01.63-.18z" fill="#83959e"/><path d="m24.8798 57.71c.05-.05.07-.12.09-.19.01-.02.01-.05.01-.07 0-.04-.03-.07-.05-.09-.08-.08-.21-.11-.32-.07s-.18.16-.16.27c.05.08.11.15.19.18.07.03.17.03.24-.03z" fill="#000" opacity=".2"/><path d="m1.66996 59.16c.7.37 1.42.74 2.21.83.84.09 1.68-.15 2.5-.33.4-.09.74999-.1 1.14999-.1.31 0 .6-.04.84.22.15.16.22.39.25.61.04.28.12001.88-.13999 1.07s-.94.18-1.25.22c-.88.12-1.77002.17-2.65002.07-1.32-.14-2.63-.63-3.589999-1.56-.16-.15-.310005-.32-.380005-.53s-.029985-.47.140015-.6c.259999-.2.630009-.05.920009.1z" fill="#2f3f47"/><path d="m26.5499 45.23c.02.18.04.37.06.55.19 2.19-4.2 1.47-3.52-.9.46-1.59 2.6501-2.1 3.3001-.38.07.24.1199.49.1599.73z" fill="#272525"/><path d="m23.1999 53.55c-.09.43-.12.88-.08 1.33.45.13.93.16 1.4.09.21-.81.27-1.66.19-2.5-.29-.23-.74-.15-1.02.09-.28.26-.42.63-.49.99z" fill="#2f3f47"/><path d="m24.0599 44.78c-.08.12-.15.28-.22.49-.77 2.35-1.5199 4.56-1.3899 7.06.06 1.16 2.5499 1.17 3.2699.5.9-.84.75-3.25.68-4.35-.04-.7-1.45-5.01-2.34-3.7z" fill="#eaf1f2"/><path d="m23.0299 60.05c.33.26.74.41 1.15.51.77.2 1.6.27 2.33-.05.72-.32 1.27-1.12 1.11-1.89-.24-1.11-1.67-1.57-2.08-2.63-.23-.6-.12-1.38-.6-1.81-.21-.19-.49-.27-.76-.32-.54-.09-1.09-.07-1.62.06-.28.96-.45 1.94-.52 2.94-.07 1.15.07 2.48.99 3.19z" fill="#eaf1f2"/><path d="m24.3699 55.94c.05-.06.09-.13.12-.2.05-.1.0801-.2.0801-.31 0-.08-.03-.17-.06-.24-.01-.03-.02-.06-.03-.09-.02-.04-.03-.09-.06-.13-.07-.1-.1901-.15-.3101-.19-.08-.03-.1699-.06-.2599-.06-.2-.01-.3901.12-.4901.3s-.1.39-.05.58c.07.24.2601.46.5101.52.2.05.4199-.02.5499-.18z" fill="#272525" opacity=".2"/><path d="m24.2299 55.89c.05-.06.09-.13.12-.2.05-.1.08-.2.08-.31 0-.08-.03-.17-.06-.24-.01-.03-.02-.06-.03-.09-.02-.04-.03-.09-.06-.13-.07-.1-.19-.15-.31-.19-.08-.03-.17-.06-.26-.06-.2-.01-.39.12-.49.3s-.1.39-.05.58c.07.24.26.46.51.52.2.05.42-.02.55-.18z" fill="#83959e"/><path d="m23.8899 55.52c.04-.05.06-.11.07-.17 0-.02.01-.04 0-.07s-.03-.06-.05-.08c-.08-.07-.19-.09-.28-.05s-.15.15-.14.25c.05.06.1.12.18.15.07.04.16.03.22-.03z" fill="#000" opacity=".2"/><path d="m11.5799 64.09c.47.22.96.41 1.45.57 2.42.79 4.63.63 5.77-1.68.33-.66.81-1.23 1.24-1.86.92-1.34 1.68-2.78 2.31-4.28 1.28-3.03 2.06-6.24 2.82-9.43.21-.91.43-1.83.42-2.77-.01-1.37-.81-3.48-2.05-4.32-.73-.49-1.61-.71-2.47-.92-.39-.09-.8-.19-1.19-.16-.42.03-.81.2-1.15.42-1.75 1.06-2.56 3.05-3.41 4.86-1.18 2.51-2.63 4.9-4.24 7.18-1.02 1.44-2.11001 2.85-2.75001 4.48s-.78998 3.55.08002 5.15c.66 1.25 1.83999 2.14 3.16999 2.76z" fill="#e2eced"/><path d="m23.9599 41.64c-.06-.33-.29-.6-.53-.83-.77-.76-1.74-1.31-2.78-1.61-.13-.04-.27-.07-.41-.05-.39.05-.6.46-.74.82-.3.75-.61 1.5-.91 2.25-.21.51-.42 1.05-.35 1.59.42-.03.85-.06 1.26-.15s.81-.24 1.22-.32c.45-.08.92-.07 1.38-.12.46-.04.93-.14 1.31-.4.37-.26.64-.73.55-1.18z" fill="#2f3f47"/><path d="m26.2699 44.95c.06.2.1.41.15.61.54 2.43-4.5 2.27-4.09-.48.27-1.85 2.66-2.75 3.64-.91.13.24.23.5.3.78z" fill="#272525" opacity=".37"/><path d="m23.3499 55.17c-.04.5 0 1.01.11 1.5.53.08 1.07.04 1.58-.1.11-.94.06-1.9-.15-2.83-.36-.22-.86-.06-1.13.26-.28.31-.38.75-.41 1.17z" fill="#2f3f47"/><path d="m23.4199 44.8c-.07.14-.13.34-.18.59-.51 2.75-1.03 5.34-.51 8.13.24 1.3 3.03.93 3.74.08.89-1.07.36-3.76.12-4.98-.15-.79-2.37-5.42-3.17-3.82z" fill="#eaf1f2"/><path d="m24.5399 62.1c.41.24.89.34 1.37.4.89.11 1.84.06 2.6-.41s1.26-1.44.96-2.29c-.43-1.21-2.11-1.51-2.73-2.64-.35-.64-.34-1.53-.94-1.95-.26-.18-.59-.23-.9-.24-.61-.02-1.23.08-1.81.3-.17 1.11-.22 2.25-.14 3.37.08 1.33.44 2.8 1.59 3.46z" fill="#eaf1f2"/><path d="m25.42 57.29c.05-.07.0799-.16.1099-.24.04-.12.0601-.24.0401-.36-.02-.09-.0601-.18-.1101-.26-.02-.03-.0299-.06-.0499-.09-.03-.05-.05-.09-.09-.13-.09-.1-.2401-.14-.3801-.17-.1-.02-.1999-.04-.2999-.03-.23.02-.42.19-.5.41-.08.21-.06.45.03.66.12.26.36.48.65.51.24.01.48-.11.6-.3z" fill="#272525" opacity=".2"/><path d="m25.2599 57.25c.05-.07.08-.16.11-.24.04-.12.06-.24.04-.36-.02-.09-.06-.18-.11-.26-.02-.03-.03-.06-.05-.09-.03-.05-.05-.09-.09-.13-.09-.1-.24-.14-.38-.17-.1-.02-.2-.04-.3-.03-.23.02-.42.19-.5.41-.08.21-.06.45.03.66.12.26.36.48.65.51.24.01.48-.1.6-.3z" fill="#83959e"/><path d="m24.82 56.89c.04-.06.0499-.13.0499-.21 0-.02 0-.05-.01-.07-.01-.03-.0399-.06-.0699-.08-.09-.06-.23-.07-.32-.01-.1.06-.15.19-.12.3.06.07.13.12.22.15.09.01.19-.01.25-.08z" fill="#000" opacity=".2"/><path d="m18.3399 38.58c.14.53.3 1.07.64 1.5.85 1.07 2.46 1.01 3.82.86 1.54-.18 3.08-.35 4.63-.53 1.7-.19 3.53-.44 4.77-1.62 1-.95 1.44-2.56.77-3.76-.35-.64-.96-1.09-1.56-1.49-1.99-1.32-4.21-2.27-6.54-2.82-2.13-.5-4.68-.51-6.12 1.13-.77.88-1.07 2.11-1.05 3.28s.33 2.31.64 3.45z" fill="#eaf1f2"/><path d="m30.4599 35.01c.25-.27.47-.56.65-.89.12-.23.21-.51.09-.74-.08-.15-.23-.23-.38-.31-2.06-1.13-4.26-2.01-6.52-2.64-.32-.09-.65-.17-.97-.1-.81.18-.88 1.67-1.08 2.32-.16.52-.37 1.04-.62 1.52-.25.5-.81 1.02-.98 1.53-.3.88 1.31 2.09 1.99 2.52.41.25.86.46 1.33.5.82.06 1.58-.39 2.28-.82.71-.44 1.41-.87 2.12-1.31.73-.47 1.5-.95 2.09-1.58z" fill="#2f3f47"/><path d="m16.4399 41.35c.17 0 .35-.02.51-.08.22-.09.39-.26.54-.43.89-1 1.47-2.27 1.67-3.59.12-.81.1-1.66.39-2.42.14-.38.37-.77.29-1.16-.1-.47-.61-.76-1.09-.74s-.92.27-1.3.55c-1.93 1.43-3.04 3.89-2.83 6.29.03.34.09.69.28.97.33.45.96.61 1.54.61z" fill="#272525" opacity=".25"/><path d="m15.84 41.41c.17 0 .35-.02.51-.08.22-.09.39-.26.54-.43.89-1 1.47-2.27 1.67-3.59.12-.81.1-1.66.39-2.42.14-.38.3699-.77.2899-1.16-.1-.47-.61-.76-1.09-.74s-.9199.27-1.2999.55c-1.93 1.43-3.0401 3.89-2.8301 6.29.03.34.09.69.28.97.33.45.9601.62 1.5401.61z" fill="#eaf1f2"/><path d="m21.98 36.92c.07-.04.14-.09.2-.14.08-.07.16-.16.2-.26.03-.08.03-.17.04-.26 0-.03 0-.06 0-.09 0-.05 0-.1-.01-.14-.02-.13-.12-.22-.22-.31-.07-.06-.14-.12-.22-.16-.19-.09-.42-.04-.59.08-.16.13-.26.33-.28.54-.03.26.06.55.27.7.18.11.42.13.61.04z" fill="#272525" opacity=".2"/><path d="m21.87 36.82c.07-.04.14-.09.2-.14.08-.07.16-.16.2-.26.03-.08.03-.17.04-.26 0-.03 0-.06 0-.09 0-.05 0-.1-.01-.15-.02-.13-.12-.22-.22-.31-.07-.06-.14-.12-.22-.16-.19-.09-.42-.04-.59.08-.16.13-.26.33-.28.54-.03.26.06.55.27.7.18.12.42.14.61.05z" fill="#83959e"/><path d="m21.69 36.32c.06-.02.1-.08.14-.14.01-.02.02-.04.03-.06.01-.03 0-.07-.02-.1-.04-.1-.15-.16-.25-.16s-.21.08-.23.18c.02.08.05.16.1.22.07.06.16.09.23.06z" fill="#000" opacity=".2"/><path d="m23.28 58.24c.12.49.32.96.57 1.39.52-.09 1.03-.29 1.47-.6-.19-.93-.54-1.83-1.04-2.64-.41-.09-.83.21-.99.6-.16.4-.11.84-.01 1.25z" fill="#2f3f47"/><path d="m22.09 65.47c.31.36.73.62 1.15.83.8.4 1.72.67 2.59.48.88-.19 1.67-.94 1.67-1.84 0-1.28-1.49-2.13-1.69-3.39-.12-.72.19-1.55-.24-2.15-.18-.26-.48-.41-.77-.53-.57-.23-1.19-.33-1.8-.31-.53 1-.95 2.05-1.25 3.13-.36 1.28-.51 2.78.34 3.78z" fill="#eaf1f2"/><path d="m24.53 61.23c.07-.05.13-.12.18-.19.07-.1.14-.2.16-.32.02-.09 0-.19-.01-.29-.01-.03-.01-.07-.02-.1-.01-.05-.02-.11-.04-.15-.05-.13-.18-.21-.3-.29-.09-.05-.18-.1-.28-.13-.22-.05-.46.04-.61.22-.15.17-.1999.41-.1899.63.02.29.1799.57.4399.69.22.1.49.07.67-.07z" fill="#272525" opacity=".2"/><path d="m24.3901 61.14c.07-.05.1299-.12.1799-.19.07-.1.14-.2.16-.32.02-.09 0-.19-.02-.29-.01-.03-.01-.07-.02-.1-.01-.05-.02-.11-.04-.15-.05-.13-.18-.21-.3-.29-.09-.05-.18-.1-.28-.13-.22-.05-.46.04-.61.22-.15.17-.2.41-.19.63.02.29.18.57.44.69.24.1.5001.07.6801-.07z" fill="#83959e"/><path d="m24.0901 60.65c.06-.04.09-.11.12-.18.01-.02.02-.05.02-.07 0-.04-.02-.07-.04-.1-.07-.09-.19-.14-.3-.12s-.2.13-.21.24c.04.08.08.16.16.21.07.06.18.07.25.02z" fill="#000" opacity=".2"/><path d="m14.73 59.73c.16-.13.33-.26.5-.38 2-1.49 3.9199 3.17 1.2399 3.93-1.8.51-3.5999-1.29-2.3299-2.95.17-.22.37-.42.59-.6z" fill="#272525" opacity=".37"/><path d="m15.7699 62.4c.16.01.36-.02.61-.08 2.72-.66 5.29-1.26 7.63-2.87 1.08-.75-.4-3.15-1.46-3.44-1.34-.37-3.57 1.22-4.59 1.93-.67.46-3.98 4.38-2.19 4.46z" fill="#eaf1f2"/></svg>